<!DOCTYPE svg PUBLIC "-//W3C//DTD SVG 1.1//EN" "http://www.w3.org/Graphics/SVG/1.1/DTD/svg11.dtd">
<!-- Uploaded to: SVG Repo, www.svgrepo.com, Transformed by: SVG Repo Mixer Tools -->
<svg fill="#16a34a" height="800px" width="800px" version="1.1" id="Layer_1" xmlns="http://www.w3.org/2000/svg" xmlns:xlink="http://www.w3.org/1999/xlink" viewBox="0 0 512 512" xml:space="preserve" transform="matrix(-1, 0, 0, 1, 0, 0)">
<g id="SVGRepo_bgCarrier" stroke-width="0"/>
<g id="SVGRepo_tracerCarrier" stroke-linecap="round" stroke-linejoin="round"/>
<g id="SVGRepo_iconCarrier"> <g> <g> <g> <path d="M503.467,358.4h-25.6v-34.133v-85.333V192c0-91.75-74.65-166.4-166.4-166.4c-7.953,0-16.341,0.759-25.455,2.202 c-8.414-1.314-16.964-2.202-25.745-2.202c-7.953,0-16.341,0.759-25.455,2.202c-8.414-1.314-16.964-2.202-25.745-2.202 c-91.75,0-166.4,74.65-166.4,166.4v149.333H8.533c-4.71,0-8.533,3.814-8.533,8.533v99.738C0,469.888,16.512,486.4,36.796,486.4 h57.071c0.614,0,1.161-0.265,1.741-0.418c2.236,0.256,4.497,0.418,6.793,0.418h315.733H444.8c37.06,0,67.2-30.14,67.2-67.2 v-52.267C512,362.214,508.186,358.4,503.467,358.4z M36.796,469.333c-10.871,0-19.729-8.849-19.729-19.729V358.4h25.6v68.267 c0,2.057,0.102,4.096,0.307,6.101c1.434,14.199,7.825,27.025,17.57,36.565H36.796z M139.034,164.634l59.733-59.733 c3.336-3.337,8.73-3.337,12.066,0l59.733,59.733c3.337,3.337,3.337,8.73,0,12.066l-59.733,59.733 c-1.664,1.664-3.849,2.5-6.033,2.5c-2.185,0-4.369-0.836-6.033-2.5L139.034,176.7 C135.697,173.363,135.697,167.97,139.034,164.634z M324.267,398.933c0,20.002-16.273,36.267-36.267,36.267H130.133 c-19.994,0-36.267-16.265-36.267-36.267v-60.271c0-12.638,10.291-22.929,22.929-22.929h184.542 c12.638,0,22.929,10.291,22.929,22.929V398.933z M374.135,171.955c-0.333-2.688-0.751-5.35-1.22-7.996 c-8.738-51.149-40.721-94.456-84.83-118.357C357.598,58.914,409.6,121.131,409.6,192v38.4h-34.133V192 c0-4.907-0.299-9.762-0.742-14.592C374.571,175.573,374.357,173.764,374.135,171.955z M409.6,366.933v101.538h-0.026 c-0.154-0.034-0.29-0.102-0.444-0.137c-2.458-0.529-4.83-1.28-7.108-2.21c-0.819-0.333-1.57-0.785-2.364-1.169 c-1.553-0.759-3.081-1.536-4.523-2.466c-0.845-0.538-1.63-1.169-2.441-1.766c-1.263-0.956-2.5-1.937-3.652-3.021 c-0.759-0.708-1.476-1.459-2.176-2.227c-1.058-1.143-2.048-2.347-2.97-3.601c-0.623-0.836-1.22-1.681-1.783-2.56 c-0.853-1.348-1.587-2.773-2.287-4.215c-0.444-0.905-0.905-1.792-1.28-2.731c-0.649-1.638-1.126-3.345-1.579-5.077 c-0.222-0.845-0.512-1.656-0.683-2.517c-0.512-2.628-0.819-5.333-0.819-8.107V332.8H409.6V366.933z M375.467,315.733v-68.267 h42.667H460.8v68.267h-42.667H375.467z M494.933,419.2c0,27.639-22.494,50.133-50.133,50.133h-18.133v-93.867h42.667h25.6V419.2z "/> <path d="M307.196,338.662c0-3.226-2.628-5.862-5.862-5.862H116.8c-3.234,0-5.862,2.637-5.862,5.862V358.4h196.258V338.662z"/> <path d="M170.667,392.533c0,4.719-3.823,8.533-8.533,8.533c-4.71,0-8.533-3.814-8.533-8.533v-17.067h-42.667v23.467 c0,10.581,8.61,19.2,19.2,19.2H288c10.59,0,19.2-8.619,19.2-19.2v-23.467H170.667V392.533z"/> <path d="M252.467,170.667L204.8,122.999l-47.667,47.667l47.667,47.667L252.467,170.667z M179.2,170.667 c0-4.719,3.823-8.533,8.533-8.533h34.133c4.71,0,8.533,3.814,8.533,8.533s-3.823,8.533-8.533,8.533h-34.133 C183.023,179.2,179.2,175.386,179.2,170.667z"/> </g> </g> </g> </g>
</svg>