<!DOCTYPE svg PUBLIC "-//W3C//DTD SVG 1.1//EN" "http://www.w3.org/Graphics/SVG/1.1/DTD/svg11.dtd">
<!-- Uploaded to: SVG Repo, www.svgrepo.com, Transformed by: SVG Repo Mixer Tools -->
<svg fill="#075985" width="800px" height="800px" viewBox="0 0 32 32" version="1.1" xmlns="http://www.w3.org/2000/svg">
<g id="SVGRepo_bgCarrier" stroke-width="0"/>
<g id="SVGRepo_tracerCarrier" stroke-linecap="round" stroke-linejoin="round"/>
<g id="SVGRepo_iconCarrier"> <title>theater</title> <path d="M30.932 12.092c-0.222-0.323-0.589-0.532-1.005-0.532-0.017 0-0.033 0-0.050 0.001l0.002-0c-0.206 0.005-0.449 0.007-0.692 0.007-3.334 0-6.55-0.503-9.577-1.437l0.23 0.061c0.446-1.972 0.792-4.331 0.965-6.738l0.009-0.159c0.002-0.026 0.003-0.057 0.003-0.087 0-0.69-0.56-1.25-1.25-1.25-0.143 0-0.28 0.024-0.408 0.068l0.009-0.003c-2.836 0.973-6.104 1.535-9.504 1.535-2.588 0-5.101-0.326-7.498-0.939l0.209 0.045c-0.086-0.021-0.184-0.033-0.286-0.033-0.69 0-1.25 0.56-1.25 1.25 0 0.064 0.005 0.128 0.014 0.189l-0.001-0.007c1.517 10.261 4.782 16.649 9.030 17.778 0.83 4.409 2.7 7.267 5.502 8.017 0.425 0.119 0.913 0.188 1.416 0.188 0.004 0 0.007 0 0.011 0h-0.001c4.823 0 10.165-6.217 14.265-16.784 0.053-0.134 0.084-0.289 0.084-0.451 0-0.27-0.086-0.52-0.231-0.724l0.003 0.004zM3.613 5.478c1.838 0.369 3.95 0.58 6.112 0.58 3.001 0 5.908-0.407 8.667-1.169l-0.228 0.054c-0.161 1.557-0.407 3.017-0.698 4.444-2.137-0.816-3.949-1.701-5.67-2.724l0.167 0.092c-0.182-0.109-0.401-0.173-0.635-0.173-0.194 0-0.379 0.044-0.543 0.123l0.008-0.003c-0.29 0.152-0.508 0.407-0.607 0.717l-0.002 0.009c-0.127-0.049-0.275-0.077-0.429-0.077-0.406 0-0.765 0.196-0.99 0.497l-0.002 0.003c-0.462 0.636-0.786 0.809-0.905 0.811-0.353-0.145-0.642-0.387-0.84-0.693l-0.004-0.007c-0.231-0.289-0.583-0.472-0.978-0.472-0.69 0-1.249 0.559-1.249 1.249 0 0.288 0.097 0.553 0.261 0.764l-0.002-0.003c0.613 0.942 1.629 1.578 2.798 1.66l0.012 0.001h0.048c0.705-0.038 1.339-0.312 1.833-0.743l-0.004 0.003c-0.13 1.168-0.223 2.298-0.277 3.382-0.604 0.447-1.12 0.966-1.55 1.554l-0.014 0.020c-0.16 0.207-0.256 0.471-0.256 0.757 0 0.688 0.558 1.246 1.246 1.246 0.196 0 0.381-0.045 0.546-0.125l-0.007 0.003q0.026 0.865 0.090 1.679c-2.1-1.404-4.481-5.456-5.894-13.459zM16.031 27.445c-2.844-0.762-5.118-6.594-3.719-17.635 4.554 2.504 9.949 4.053 15.688 4.245l0.058 0.002c-4.305 10.242-9.185 14.141-12.027 13.389zM12.564 16.325c0.231 0.282 0.579 0.46 0.969 0.46 0.301 0 0.577-0.106 0.792-0.283l-0.002 0.002c0.598-0.487 1.003-0.612 1.185-0.57 0.194 0.048 0.521 0.378 0.858 1.162 0.198 0.446 0.636 0.751 1.146 0.751 0.691 0 1.25-0.56 1.25-1.25 0-0.176-0.036-0.343-0.102-0.495l0.003 0.008c-0.396-1.232-1.337-2.187-2.532-2.595l-0.028-0.008c-0.195-0.035-0.419-0.055-0.648-0.055-1.058 0-2.016 0.426-2.713 1.116l0-0c-0.282 0.231-0.46 0.579-0.46 0.969 0 0.301 0.106 0.577 0.283 0.792l-0.002-0.002zM20.959 18.283c0.598-0.487 1-0.616 1.184-0.571 0.195 0.048 0.523 0.378 0.859 1.161 0.196 0.449 0.636 0.757 1.148 0.757 0.69 0 1.25-0.559 1.25-1.25 0-0.178-0.037-0.347-0.104-0.501l0.003 0.008c-0.396-1.232-1.337-2.188-2.532-2.595l-0.028-0.008c-0.195-0.035-0.419-0.055-0.648-0.055-1.057 0-2.014 0.426-2.71 1.116l0-0c-0.281 0.231-0.459 0.578-0.459 0.967 0 0.69 0.56 1.25 1.25 1.25 0.299 0 0.574-0.105 0.789-0.281l-0.002 0.002zM19.705 21.676c-0.553 0.469-1.322 0.994-1.916 0.869-0.508-0.113-1.061-0.783-1.556-1.881-0.201-0.438-0.635-0.736-1.14-0.736-0.69 0-1.25 0.56-1.25 1.25 0 0.186 0.041 0.363 0.114 0.521l-0.003-0.008c0.511 1.567 1.719 2.779 3.249 3.283l0.036 0.010c0.221 0.052 0.474 0.082 0.734 0.082 0 0 0.001 0 0.001 0h-0c1.309-0.087 2.475-0.637 3.349-1.486l-0.001 0.001c0.264-0.23 0.43-0.568 0.43-0.943 0-0.69-0.56-1.25-1.25-1.25-0.304 0-0.582 0.108-0.799 0.289l0.002-0.002z"/> </g>
</svg>