<svg xmlns="http://www.w3.org/2000/svg" xmlns:xlink="http://www.w3.org/1999/xlink" width="500" zoomAndPan="magnify" viewBox="0 0 375 374.999991" height="500" preserveAspectRatio="xMidYMid meet" version="1.0"><defs><clipPath id="2a5f538869"><path d="M 111.988281 117.65625 L 171.808594 117.65625 L 171.808594 171.242188 L 111.988281 171.242188 Z M 111.988281 117.65625 " clip-rule="nonzero"/></clipPath></defs><path fill="#1e40af" d="M 274.460938 174.730469 C 284.191406 169.273438 290.648438 156.074219 290.648438 156.074219 C 257.375 62.089844 285.757812 -1.375 285.757812 -1.375 C 199.082031 54.921875 209.621094 103.386719 209.621094 103.386719 C 279.304688 108.988281 274.460938 174.730469 274.460938 174.730469 Z M 274.460938 174.730469 " fill-opacity="1" fill-rule="nonzero"/><path fill="#1e40af" d="M 374.050781 160.964844 C 374.050781 160.964844 329.523438 105 295.539062 170.648438 C 295.539062 170.648438 280.871094 194.90625 264.730469 190.917969 C 264.730469 190.917969 273.226562 119.621094 192.390625 114.777344 C 116.441406 108.988281 61.234375 71.914062 33.039062 48.085938 C 19.128906 36.3125 11.773438 27.769531 11.773438 27.769531 C 11.726562 28.433594 11.773438 29.003906 11.773438 29.667969 C 7.785156 6.742188 1.519531 204.824219 177.957031 248.496094 C 177.957031 248.496094 123.703125 293.925781 62.089844 300.425781 C 62.089844 300.425781 33.703125 357.105469 92.894531 371.726562 C 92.894531 371.726562 108.273438 321.457031 176.34375 318.226562 C 176.34375 318.226562 280.0625 340.109375 327.058594 264.730469 C 327.058594 264.730469 340.015625 249.777344 336.789062 189.398438 C 336.835938 189.351562 343.292969 165.425781 374.050781 160.964844 Z M 374.050781 160.964844 " fill-opacity="1" fill-rule="nonzero"/><g clip-path="url(#2a5f538869)"><path fill="#1e40af" d="M 111.988281 117.65625 L 171.859375 117.65625 L 171.859375 171.242188 L 111.988281 171.242188 Z M 111.988281 117.65625 " fill-opacity="1" fill-rule="nonzero"/></g></svg>